<?xml version="1.0" encoding="UTF-8"?>
<!DOCTYPE svg PUBLIC "-//W3C//DTD SVG 1.1//EN" "http://www.w3.org/Graphics/SVG/1.1/DTD/svg11.dtd">
<!-- Creator: CorelDRAW 2019 (64-Bit) -->
<svg xmlns="http://www.w3.org/2000/svg" xml:space="preserve" width="1.39201in" height="1.3407in" version="1.1" style="shape-rendering:geometricPrecision; text-rendering:geometricPrecision; image-rendering:optimizeQuality; fill-rule:evenodd; clip-rule:evenodd"
viewBox="0 0 64.37 62"
 xmlns:xlink="http://www.w3.org/1999/xlink"
 xmlns:xodm="http://www.corel.com/coreldraw/odm/2003">
 <defs>
  <style type="text/css">
   <![CDATA[
    .fil3 {fill:#00D5E0}
    .fil2 {fill:#0675B1}
    .fil6 {fill:#79C600}
    .fil4 {fill:#8D00EC}
    .fil5 {fill:#DC00F8}
    .fil7 {fill:#E0EA00}
    .fil9 {fill:red}
    .fil0 {fill:#FF1100}
    .fil1 {fill:#FF782E}
    .fil8 {fill:white;fill-rule:nonzero}
   ]]>
  </style>
 </defs>
 <g id="Layer_x0020_1">
  <metadata id="CorelCorpID_0Corel-Layer"/>
  <g id="_2530041850480">
   <circle class="fil0" cx="14.12" cy="17.16" r="14.12"/>
   <path class="fil1" d="M20.46 4.54c4.61,2.32 7.78,7.1 7.78,12.62 0,5.52 -3.17,10.3 -7.78,12.62 -4.61,-2.32 -7.78,-7.1 -7.78,-12.62 0,-5.52 3.17,-10.3 7.78,-12.62z"/>
   <circle class="fil2" transform="matrix(1.99497E-14 -0.753257 0.753257 1.99497E-14 14.1188 47.8779)" r="18.74"/>
   <path class="fil3" d="M1.5 41.54c2.32,-4.61 7.1,-7.78 12.62,-7.78 5.52,0 10.3,3.17 12.62,7.78 -2.32,4.61 -7.1,7.78 -12.62,7.78 -5.52,0 -10.3,-3.17 -12.62,-7.78z"/>
   <circle class="fil4" cx="44.32" cy="47.88" r="14.12"/>
   <path class="fil5" d="M37.98 60.5c-4.61,-2.32 -7.78,-7.1 -7.78,-12.62 0,-5.52 3.17,-10.3 7.78,-12.62 4.61,2.32 7.78,7.1 7.78,12.62 0,5.52 -3.17,10.3 -7.78,12.62z"/>
   <circle class="fil6" transform="matrix(-1.99497E-14 0.753257 -0.753257 -1.99497E-14 44.9018 17.1612)" r="18.74"/>
   <path class="fil7" d="M57.52 23.5c-2.32,4.61 -7.1,7.78 -12.62,7.78 -5.52,0 -10.3,-3.17 -12.62,-7.78 2.32,-4.61 7.1,-7.78 12.62,-7.78 5.52,0 10.3,3.17 12.62,7.78z"/>
   <path class="fil8" d="M38.45 0c7.15,0 13.64,2.9 18.33,7.59 4.69,4.69 7.59,11.17 7.59,18.33 0,7.15 -2.9,13.64 -7.59,18.33 -4.69,4.69 -11.17,7.59 -18.33,7.59 -7.16,0 -13.64,-2.9 -18.33,-7.59 -4.69,-4.69 -7.59,-11.17 -7.59,-18.33 0,-7.16 2.9,-13.64 7.59,-18.33 4.69,-4.69 11.17,-7.59 18.33,-7.59z"/>
   <path class="fil9" d="M43.81 39.65l-10.72 -0.01c-0.08,1.38 0.69,2.85 1.53,3.68 3.56,3.54 9.42,0.61 9.2,-3.67zm-5.41 -32.72c-0.63,0.01 -1.27,0.3 -1.7,0.86 -0.57,0.76 -0.42,2.01 -0.4,3.04 0.02,1.17 0.12,0.47 -2.07,1.3 -2.4,0.92 -4.25,2.42 -5.69,4.57 -2.24,3.38 -1.88,7.36 -1.81,11.84 0.04,2.57 -0.87,3.04 -2.25,4.58 -0.61,0.68 -1.06,1.15 -1.62,1.79 -0.57,0.65 -1.44,1.21 -1.24,2.31 0.21,1.18 1.47,1.05 2.44,1.05l14.34 0 0.05 0 0.05 0 14.34 0c0.97,0 2.22,0.12 2.44,-1.05 0.2,-1.11 -0.67,-1.66 -1.24,-2.31 -0.56,-0.64 -1.01,-1.11 -1.62,-1.79 -1.38,-1.55 -2.29,-2.01 -2.25,-4.58 0.07,-4.49 0.43,-8.46 -1.81,-11.84 -1.44,-2.16 -3.28,-3.66 -5.69,-4.57 -2.19,-0.83 -2.09,-0.13 -2.07,-1.3 0.01,-1.03 0.17,-2.28 -0.4,-3.04 -0.43,-0.57 -1.06,-0.85 -1.7,-0.86l-0.05 0 -0.05 -0z"/>
  </g>
 </g>
</svg>
